<?xml version="1.0" encoding="utf-8" standalone="no"?>
<!DOCTYPE svg PUBLIC "-//W3C//DTD SVG 1.1//EN"
  "http://www.w3.org/Graphics/SVG/1.1/DTD/svg11.dtd">
<!-- Created with matplotlib (https://matplotlib.org/) -->
<svg height="345.6pt" version="1.1" viewBox="0 0 460.8 345.6" width="460.8pt" xmlns="http://www.w3.org/2000/svg" xmlns:xlink="http://www.w3.org/1999/xlink">
 <defs>
  <style type="text/css">
*{stroke-linecap:butt;stroke-linejoin:round;white-space:pre;}
  </style>
 </defs>
 <g id="figure_1">
  <g id="patch_1">
   <path d="M 0 345.6 
L 460.8 345.6 
L 460.8 0 
L 0 0 
z
" style="fill:#ffffff;"/>
  </g>
  <g id="axes_1">
   <g id="patch_2">
    <path d="M 57.6 307.584 
L 414.72 307.584 
L 414.72 41.472 
L 57.6 41.472 
z
" style="fill:#ffffff;"/>
   </g>
   <g id="matplotlib.axis_1">
    <g id="xtick_1">
     <g id="line2d_1">
      <defs>
       <path d="M 0 0 
L 0 3.5 
" id="m82d2dc86eb" style="stroke:#000000;stroke-width:0.8;"/>
      </defs>
      <g>
       <use style="stroke:#000000;stroke-width:0.8;" x="61.135842" xlink:href="#m82d2dc86eb" y="307.584"/>
      </g>
     </g>
     <g id="text_1">
      <!-- 0.10 -->
      <defs>
       <path d="M 31.78125 66.40625 
Q 24.171875 66.40625 20.328125 58.90625 
Q 16.5 51.421875 16.5 36.375 
Q 16.5 21.390625 20.328125 13.890625 
Q 24.171875 6.390625 31.78125 6.390625 
Q 39.453125 6.390625 43.28125 13.890625 
Q 47.125 21.390625 47.125 36.375 
Q 47.125 51.421875 43.28125 58.90625 
Q 39.453125 66.40625 31.78125 66.40625 
z
M 31.78125 74.21875 
Q 44.046875 74.21875 50.515625 64.515625 
Q 56.984375 54.828125 56.984375 36.375 
Q 56.984375 17.96875 50.515625 8.265625 
Q 44.046875 -1.421875 31.78125 -1.421875 
Q 19.53125 -1.421875 13.0625 8.265625 
Q 6.59375 17.96875 6.59375 36.375 
Q 6.59375 54.828125 13.0625 64.515625 
Q 19.53125 74.21875 31.78125 74.21875 
z
" id="DejaVuSans-48"/>
       <path d="M 10.6875 12.40625 
L 21 12.40625 
L 21 0 
L 10.6875 0 
z
" id="DejaVuSans-46"/>
       <path d="M 12.40625 8.296875 
L 28.515625 8.296875 
L 28.515625 63.921875 
L 10.984375 60.40625 
L 10.984375 69.390625 
L 28.421875 72.90625 
L 38.28125 72.90625 
L 38.28125 8.296875 
L 54.390625 8.296875 
L 54.390625 0 
L 12.40625 0 
z
" id="DejaVuSans-49"/>
      </defs>
      <g transform="translate(50.003029 322.182437)scale(0.1 -0.1)">
       <use xlink:href="#DejaVuSans-48"/>
       <use x="63.623047" xlink:href="#DejaVuSans-46"/>
       <use x="95.410156" xlink:href="#DejaVuSans-49"/>
       <use x="159.033203" xlink:href="#DejaVuSans-48"/>
      </g>
     </g>
    </g>
    <g id="xtick_2">
     <g id="line2d_2">
      <g>
       <use style="stroke:#000000;stroke-width:0.8;" x="131.852673" xlink:href="#m82d2dc86eb" y="307.584"/>
      </g>
     </g>
     <g id="text_2">
      <!-- 0.15 -->
      <defs>
       <path d="M 10.796875 72.90625 
L 49.515625 72.90625 
L 49.515625 64.59375 
L 19.828125 64.59375 
L 19.828125 46.734375 
Q 21.96875 47.46875 24.109375 47.828125 
Q 26.265625 48.1875 28.421875 48.1875 
Q 40.625 48.1875 47.75 41.5 
Q 54.890625 34.8125 54.890625 23.390625 
Q 54.890625 11.625 47.5625 5.09375 
Q 40.234375 -1.421875 26.90625 -1.421875 
Q 22.3125 -1.421875 17.546875 -0.640625 
Q 12.796875 0.140625 7.71875 1.703125 
L 7.71875 11.625 
Q 12.109375 9.234375 16.796875 8.0625 
Q 21.484375 6.890625 26.703125 6.890625 
Q 35.15625 6.890625 40.078125 11.328125 
Q 45.015625 15.765625 45.015625 23.390625 
Q 45.015625 31 40.078125 35.4375 
Q 35.15625 39.890625 26.703125 39.890625 
Q 22.75 39.890625 18.8125 39.015625 
Q 14.890625 38.140625 10.796875 36.28125 
z
" id="DejaVuSans-53"/>
      </defs>
      <g transform="translate(120.719861 322.182437)scale(0.1 -0.1)">
       <use xlink:href="#DejaVuSans-48"/>
       <use x="63.623047" xlink:href="#DejaVuSans-46"/>
       <use x="95.410156" xlink:href="#DejaVuSans-49"/>
       <use x="159.033203" xlink:href="#DejaVuSans-53"/>
      </g>
     </g>
    </g>
    <g id="xtick_3">
     <g id="line2d_3">
      <g>
       <use style="stroke:#000000;stroke-width:0.8;" x="202.569505" xlink:href="#m82d2dc86eb" y="307.584"/>
      </g>
     </g>
     <g id="text_3">
      <!-- 0.20 -->
      <defs>
       <path d="M 19.1875 8.296875 
L 53.609375 8.296875 
L 53.609375 0 
L 7.328125 0 
L 7.328125 8.296875 
Q 12.9375 14.109375 22.625 23.890625 
Q 32.328125 33.6875 34.8125 36.53125 
Q 39.546875 41.84375 41.421875 45.53125 
Q 43.3125 49.21875 43.3125 52.78125 
Q 43.3125 58.59375 39.234375 62.25 
Q 35.15625 65.921875 28.609375 65.921875 
Q 23.96875 65.921875 18.8125 64.3125 
Q 13.671875 62.703125 7.8125 59.421875 
L 7.8125 69.390625 
Q 13.765625 71.78125 18.9375 73 
Q 24.125 74.21875 28.421875 74.21875 
Q 39.75 74.21875 46.484375 68.546875 
Q 53.21875 62.890625 53.21875 53.421875 
Q 53.21875 48.921875 51.53125 44.890625 
Q 49.859375 40.875 45.40625 35.40625 
Q 44.1875 33.984375 37.640625 27.21875 
Q 31.109375 20.453125 19.1875 8.296875 
z
" id="DejaVuSans-50"/>
      </defs>
      <g transform="translate(191.436692 322.182437)scale(0.1 -0.1)">
       <use xlink:href="#DejaVuSans-48"/>
       <use x="63.623047" xlink:href="#DejaVuSans-46"/>
       <use x="95.410156" xlink:href="#DejaVuSans-50"/>
       <use x="159.033203" xlink:href="#DejaVuSans-48"/>
      </g>
     </g>
    </g>
    <g id="xtick_4">
     <g id="line2d_4">
      <g>
       <use style="stroke:#000000;stroke-width:0.8;" x="273.286337" xlink:href="#m82d2dc86eb" y="307.584"/>
      </g>
     </g>
     <g id="text_4">
      <!-- 0.25 -->
      <g transform="translate(262.153524 322.182437)scale(0.1 -0.1)">
       <use xlink:href="#DejaVuSans-48"/>
       <use x="63.623047" xlink:href="#DejaVuSans-46"/>
       <use x="95.410156" xlink:href="#DejaVuSans-50"/>
       <use x="159.033203" xlink:href="#DejaVuSans-53"/>
      </g>
     </g>
    </g>
    <g id="xtick_5">
     <g id="line2d_5">
      <g>
       <use style="stroke:#000000;stroke-width:0.8;" x="344.003168" xlink:href="#m82d2dc86eb" y="307.584"/>
      </g>
     </g>
     <g id="text_5">
      <!-- 0.30 -->
      <defs>
       <path d="M 40.578125 39.3125 
Q 47.65625 37.796875 51.625 33 
Q 55.609375 28.21875 55.609375 21.1875 
Q 55.609375 10.40625 48.1875 4.484375 
Q 40.765625 -1.421875 27.09375 -1.421875 
Q 22.515625 -1.421875 17.65625 -0.515625 
Q 12.796875 0.390625 7.625 2.203125 
L 7.625 11.71875 
Q 11.71875 9.328125 16.59375 8.109375 
Q 21.484375 6.890625 26.8125 6.890625 
Q 36.078125 6.890625 40.9375 10.546875 
Q 45.796875 14.203125 45.796875 21.1875 
Q 45.796875 27.640625 41.28125 31.265625 
Q 36.765625 34.90625 28.71875 34.90625 
L 20.21875 34.90625 
L 20.21875 43.015625 
L 29.109375 43.015625 
Q 36.375 43.015625 40.234375 45.921875 
Q 44.09375 48.828125 44.09375 54.296875 
Q 44.09375 59.90625 40.109375 62.90625 
Q 36.140625 65.921875 28.71875 65.921875 
Q 24.65625 65.921875 20.015625 65.03125 
Q 15.375 64.15625 9.8125 62.3125 
L 9.8125 71.09375 
Q 15.4375 72.65625 20.34375 73.4375 
Q 25.25 74.21875 29.59375 74.21875 
Q 40.828125 74.21875 47.359375 69.109375 
Q 53.90625 64.015625 53.90625 55.328125 
Q 53.90625 49.265625 50.4375 45.09375 
Q 46.96875 40.921875 40.578125 39.3125 
z
" id="DejaVuSans-51"/>
      </defs>
      <g transform="translate(332.870356 322.182437)scale(0.1 -0.1)">
       <use xlink:href="#DejaVuSans-48"/>
       <use x="63.623047" xlink:href="#DejaVuSans-46"/>
       <use x="95.410156" xlink:href="#DejaVuSans-51"/>
       <use x="159.033203" xlink:href="#DejaVuSans-48"/>
      </g>
     </g>
    </g>
    <g id="xtick_6">
     <g id="line2d_6">
      <g>
       <use style="stroke:#000000;stroke-width:0.8;" x="414.72" xlink:href="#m82d2dc86eb" y="307.584"/>
      </g>
     </g>
     <g id="text_6">
      <!-- 0.35 -->
      <g transform="translate(403.587188 322.182437)scale(0.1 -0.1)">
       <use xlink:href="#DejaVuSans-48"/>
       <use x="63.623047" xlink:href="#DejaVuSans-46"/>
       <use x="95.410156" xlink:href="#DejaVuSans-51"/>
       <use x="159.033203" xlink:href="#DejaVuSans-53"/>
      </g>
     </g>
    </g>
    <g id="text_7">
     <!-- Time (s) -->
     <defs>
      <path d="M -0.296875 72.90625 
L 61.375 72.90625 
L 61.375 64.59375 
L 35.5 64.59375 
L 35.5 0 
L 25.59375 0 
L 25.59375 64.59375 
L -0.296875 64.59375 
z
" id="DejaVuSans-84"/>
      <path d="M 9.421875 54.6875 
L 18.40625 54.6875 
L 18.40625 0 
L 9.421875 0 
z
M 9.421875 75.984375 
L 18.40625 75.984375 
L 18.40625 64.59375 
L 9.421875 64.59375 
z
" id="DejaVuSans-105"/>
      <path d="M 52 44.1875 
Q 55.375 50.25 60.0625 53.125 
Q 64.75 56 71.09375 56 
Q 79.640625 56 84.28125 50.015625 
Q 88.921875 44.046875 88.921875 33.015625 
L 88.921875 0 
L 79.890625 0 
L 79.890625 32.71875 
Q 79.890625 40.578125 77.09375 44.375 
Q 74.3125 48.1875 68.609375 48.1875 
Q 61.625 48.1875 57.5625 43.546875 
Q 53.515625 38.921875 53.515625 30.90625 
L 53.515625 0 
L 44.484375 0 
L 44.484375 32.71875 
Q 44.484375 40.625 41.703125 44.40625 
Q 38.921875 48.1875 33.109375 48.1875 
Q 26.21875 48.1875 22.15625 43.53125 
Q 18.109375 38.875 18.109375 30.90625 
L 18.109375 0 
L 9.078125 0 
L 9.078125 54.6875 
L 18.109375 54.6875 
L 18.109375 46.1875 
Q 21.1875 51.21875 25.484375 53.609375 
Q 29.78125 56 35.6875 56 
Q 41.65625 56 45.828125 52.96875 
Q 50 49.953125 52 44.1875 
z
" id="DejaVuSans-109"/>
      <path d="M 56.203125 29.59375 
L 56.203125 25.203125 
L 14.890625 25.203125 
Q 15.484375 15.921875 20.484375 11.0625 
Q 25.484375 6.203125 34.421875 6.203125 
Q 39.59375 6.203125 44.453125 7.46875 
Q 49.3125 8.734375 54.109375 11.28125 
L 54.109375 2.78125 
Q 49.265625 0.734375 44.1875 -0.34375 
Q 39.109375 -1.421875 33.890625 -1.421875 
Q 20.796875 -1.421875 13.15625 6.1875 
Q 5.515625 13.8125 5.515625 26.8125 
Q 5.515625 40.234375 12.765625 48.109375 
Q 20.015625 56 32.328125 56 
Q 43.359375 56 49.78125 48.890625 
Q 56.203125 41.796875 56.203125 29.59375 
z
M 47.21875 32.234375 
Q 47.125 39.59375 43.09375 43.984375 
Q 39.0625 48.390625 32.421875 48.390625 
Q 24.90625 48.390625 20.390625 44.140625 
Q 15.875 39.890625 15.1875 32.171875 
z
" id="DejaVuSans-101"/>
      <path id="DejaVuSans-32"/>
      <path d="M 31 75.875 
Q 24.46875 64.65625 21.28125 53.65625 
Q 18.109375 42.671875 18.109375 31.390625 
Q 18.109375 20.125 21.3125 9.0625 
Q 24.515625 -2 31 -13.1875 
L 23.1875 -13.1875 
Q 15.875 -1.703125 12.234375 9.375 
Q 8.59375 20.453125 8.59375 31.390625 
Q 8.59375 42.28125 12.203125 53.3125 
Q 15.828125 64.359375 23.1875 75.875 
z
" id="DejaVuSans-40"/>
      <path d="M 44.28125 53.078125 
L 44.28125 44.578125 
Q 40.484375 46.53125 36.375 47.5 
Q 32.28125 48.484375 27.875 48.484375 
Q 21.1875 48.484375 17.84375 46.4375 
Q 14.5 44.390625 14.5 40.28125 
Q 14.5 37.15625 16.890625 35.375 
Q 19.28125 33.59375 26.515625 31.984375 
L 29.59375 31.296875 
Q 39.15625 29.25 43.1875 25.515625 
Q 47.21875 21.78125 47.21875 15.09375 
Q 47.21875 7.46875 41.1875 3.015625 
Q 35.15625 -1.421875 24.609375 -1.421875 
Q 20.21875 -1.421875 15.453125 -0.5625 
Q 10.6875 0.296875 5.421875 2 
L 5.421875 11.28125 
Q 10.40625 8.6875 15.234375 7.390625 
Q 20.0625 6.109375 24.8125 6.109375 
Q 31.15625 6.109375 34.5625 8.28125 
Q 37.984375 10.453125 37.984375 14.40625 
Q 37.984375 18.0625 35.515625 20.015625 
Q 33.0625 21.96875 24.703125 23.78125 
L 21.578125 24.515625 
Q 13.234375 26.265625 9.515625 29.90625 
Q 5.8125 33.546875 5.8125 39.890625 
Q 5.8125 47.609375 11.28125 51.796875 
Q 16.75 56 26.8125 56 
Q 31.78125 56 36.171875 55.265625 
Q 40.578125 54.546875 44.28125 53.078125 
z
" id="DejaVuSans-115"/>
      <path d="M 8.015625 75.875 
L 15.828125 75.875 
Q 23.140625 64.359375 26.78125 53.3125 
Q 30.421875 42.28125 30.421875 31.390625 
Q 30.421875 20.453125 26.78125 9.375 
Q 23.140625 -1.703125 15.828125 -13.1875 
L 8.015625 -13.1875 
Q 14.5 -2 17.703125 9.0625 
Q 20.90625 20.125 20.90625 31.390625 
Q 20.90625 42.671875 17.703125 53.65625 
Q 14.5 64.65625 8.015625 75.875 
z
" id="DejaVuSans-41"/>
     </defs>
     <g transform="translate(215.677188 335.860562)scale(0.1 -0.1)">
      <use xlink:href="#DejaVuSans-84"/>
      <use x="61.037109" xlink:href="#DejaVuSans-105"/>
      <use x="88.820312" xlink:href="#DejaVuSans-109"/>
      <use x="186.232422" xlink:href="#DejaVuSans-101"/>
      <use x="247.755859" xlink:href="#DejaVuSans-32"/>
      <use x="279.542969" xlink:href="#DejaVuSans-40"/>
      <use x="318.556641" xlink:href="#DejaVuSans-115"/>
      <use x="370.65625" xlink:href="#DejaVuSans-41"/>
     </g>
    </g>
   </g>
   <g id="matplotlib.axis_2">
    <g id="ytick_1">
     <g id="line2d_7">
      <defs>
       <path d="M 0 0 
L -3.5 0 
" id="m4c1248463f" style="stroke:#000000;stroke-width:0.8;"/>
      </defs>
      <g>
       <use style="stroke:#000000;stroke-width:0.8;" x="57.6" xlink:href="#m4c1248463f" y="304.326965"/>
      </g>
     </g>
     <g id="text_8">
      <!-- −0.02 -->
      <defs>
       <path d="M 10.59375 35.5 
L 73.1875 35.5 
L 73.1875 27.203125 
L 10.59375 27.203125 
z
" id="DejaVuSans-8722"/>
      </defs>
      <g transform="translate(19.954687 308.126184)scale(0.1 -0.1)">
       <use xlink:href="#DejaVuSans-8722"/>
       <use x="83.789062" xlink:href="#DejaVuSans-48"/>
       <use x="147.412109" xlink:href="#DejaVuSans-46"/>
       <use x="179.199219" xlink:href="#DejaVuSans-48"/>
       <use x="242.822266" xlink:href="#DejaVuSans-50"/>
      </g>
     </g>
    </g>
    <g id="ytick_2">
     <g id="line2d_8">
      <g>
       <use style="stroke:#000000;stroke-width:0.8;" x="57.6" xlink:href="#m4c1248463f" y="268.971105"/>
      </g>
     </g>
     <g id="text_9">
      <!-- 0.00 -->
      <g transform="translate(28.334375 272.770324)scale(0.1 -0.1)">
       <use xlink:href="#DejaVuSans-48"/>
       <use x="63.623047" xlink:href="#DejaVuSans-46"/>
       <use x="95.410156" xlink:href="#DejaVuSans-48"/>
       <use x="159.033203" xlink:href="#DejaVuSans-48"/>
      </g>
     </g>
    </g>
    <g id="ytick_3">
     <g id="line2d_9">
      <g>
       <use style="stroke:#000000;stroke-width:0.8;" x="57.6" xlink:href="#m4c1248463f" y="233.615245"/>
      </g>
     </g>
     <g id="text_10">
      <!-- 0.02 -->
      <g transform="translate(28.334375 237.414464)scale(0.1 -0.1)">
       <use xlink:href="#DejaVuSans-48"/>
       <use x="63.623047" xlink:href="#DejaVuSans-46"/>
       <use x="95.410156" xlink:href="#DejaVuSans-48"/>
       <use x="159.033203" xlink:href="#DejaVuSans-50"/>
      </g>
     </g>
    </g>
    <g id="ytick_4">
     <g id="line2d_10">
      <g>
       <use style="stroke:#000000;stroke-width:0.8;" x="57.6" xlink:href="#m4c1248463f" y="198.259385"/>
      </g>
     </g>
     <g id="text_11">
      <!-- 0.04 -->
      <defs>
       <path d="M 37.796875 64.3125 
L 12.890625 25.390625 
L 37.796875 25.390625 
z
M 35.203125 72.90625 
L 47.609375 72.90625 
L 47.609375 25.390625 
L 58.015625 25.390625 
L 58.015625 17.1875 
L 47.609375 17.1875 
L 47.609375 0 
L 37.796875 0 
L 37.796875 17.1875 
L 4.890625 17.1875 
L 4.890625 26.703125 
z
" id="DejaVuSans-52"/>
      </defs>
      <g transform="translate(28.334375 202.058603)scale(0.1 -0.1)">
       <use xlink:href="#DejaVuSans-48"/>
       <use x="63.623047" xlink:href="#DejaVuSans-46"/>
       <use x="95.410156" xlink:href="#DejaVuSans-48"/>
       <use x="159.033203" xlink:href="#DejaVuSans-52"/>
      </g>
     </g>
    </g>
    <g id="ytick_5">
     <g id="line2d_11">
      <g>
       <use style="stroke:#000000;stroke-width:0.8;" x="57.6" xlink:href="#m4c1248463f" y="162.903525"/>
      </g>
     </g>
     <g id="text_12">
      <!-- 0.06 -->
      <defs>
       <path d="M 33.015625 40.375 
Q 26.375 40.375 22.484375 35.828125 
Q 18.609375 31.296875 18.609375 23.390625 
Q 18.609375 15.53125 22.484375 10.953125 
Q 26.375 6.390625 33.015625 6.390625 
Q 39.65625 6.390625 43.53125 10.953125 
Q 47.40625 15.53125 47.40625 23.390625 
Q 47.40625 31.296875 43.53125 35.828125 
Q 39.65625 40.375 33.015625 40.375 
z
M 52.59375 71.296875 
L 52.59375 62.3125 
Q 48.875 64.0625 45.09375 64.984375 
Q 41.3125 65.921875 37.59375 65.921875 
Q 27.828125 65.921875 22.671875 59.328125 
Q 17.53125 52.734375 16.796875 39.40625 
Q 19.671875 43.65625 24.015625 45.921875 
Q 28.375 48.1875 33.59375 48.1875 
Q 44.578125 48.1875 50.953125 41.515625 
Q 57.328125 34.859375 57.328125 23.390625 
Q 57.328125 12.15625 50.6875 5.359375 
Q 44.046875 -1.421875 33.015625 -1.421875 
Q 20.359375 -1.421875 13.671875 8.265625 
Q 6.984375 17.96875 6.984375 36.375 
Q 6.984375 53.65625 15.1875 63.9375 
Q 23.390625 74.21875 37.203125 74.21875 
Q 40.921875 74.21875 44.703125 73.484375 
Q 48.484375 72.75 52.59375 71.296875 
z
" id="DejaVuSans-54"/>
      </defs>
      <g transform="translate(28.334375 166.702743)scale(0.1 -0.1)">
       <use xlink:href="#DejaVuSans-48"/>
       <use x="63.623047" xlink:href="#DejaVuSans-46"/>
       <use x="95.410156" xlink:href="#DejaVuSans-48"/>
       <use x="159.033203" xlink:href="#DejaVuSans-54"/>
      </g>
     </g>
    </g>
    <g id="ytick_6">
     <g id="line2d_12">
      <g>
       <use style="stroke:#000000;stroke-width:0.8;" x="57.6" xlink:href="#m4c1248463f" y="127.547664"/>
      </g>
     </g>
     <g id="text_13">
      <!-- 0.08 -->
      <defs>
       <path d="M 31.78125 34.625 
Q 24.75 34.625 20.71875 30.859375 
Q 16.703125 27.09375 16.703125 20.515625 
Q 16.703125 13.921875 20.71875 10.15625 
Q 24.75 6.390625 31.78125 6.390625 
Q 38.8125 6.390625 42.859375 10.171875 
Q 46.921875 13.96875 46.921875 20.515625 
Q 46.921875 27.09375 42.890625 30.859375 
Q 38.875 34.625 31.78125 34.625 
z
M 21.921875 38.8125 
Q 15.578125 40.375 12.03125 44.71875 
Q 8.5 49.078125 8.5 55.328125 
Q 8.5 64.0625 14.71875 69.140625 
Q 20.953125 74.21875 31.78125 74.21875 
Q 42.671875 74.21875 48.875 69.140625 
Q 55.078125 64.0625 55.078125 55.328125 
Q 55.078125 49.078125 51.53125 44.71875 
Q 48 40.375 41.703125 38.8125 
Q 48.828125 37.15625 52.796875 32.3125 
Q 56.78125 27.484375 56.78125 20.515625 
Q 56.78125 9.90625 50.3125 4.234375 
Q 43.84375 -1.421875 31.78125 -1.421875 
Q 19.734375 -1.421875 13.25 4.234375 
Q 6.78125 9.90625 6.78125 20.515625 
Q 6.78125 27.484375 10.78125 32.3125 
Q 14.796875 37.15625 21.921875 38.8125 
z
M 18.3125 54.390625 
Q 18.3125 48.734375 21.84375 45.5625 
Q 25.390625 42.390625 31.78125 42.390625 
Q 38.140625 42.390625 41.71875 45.5625 
Q 45.3125 48.734375 45.3125 54.390625 
Q 45.3125 60.0625 41.71875 63.234375 
Q 38.140625 66.40625 31.78125 66.40625 
Q 25.390625 66.40625 21.84375 63.234375 
Q 18.3125 60.0625 18.3125 54.390625 
z
" id="DejaVuSans-56"/>
      </defs>
      <g transform="translate(28.334375 131.346883)scale(0.1 -0.1)">
       <use xlink:href="#DejaVuSans-48"/>
       <use x="63.623047" xlink:href="#DejaVuSans-46"/>
       <use x="95.410156" xlink:href="#DejaVuSans-48"/>
       <use x="159.033203" xlink:href="#DejaVuSans-56"/>
      </g>
     </g>
    </g>
    <g id="ytick_7">
     <g id="line2d_13">
      <g>
       <use style="stroke:#000000;stroke-width:0.8;" x="57.6" xlink:href="#m4c1248463f" y="92.191804"/>
      </g>
     </g>
     <g id="text_14">
      <!-- 0.10 -->
      <g transform="translate(28.334375 95.991023)scale(0.1 -0.1)">
       <use xlink:href="#DejaVuSans-48"/>
       <use x="63.623047" xlink:href="#DejaVuSans-46"/>
       <use x="95.410156" xlink:href="#DejaVuSans-49"/>
       <use x="159.033203" xlink:href="#DejaVuSans-48"/>
      </g>
     </g>
    </g>
    <g id="ytick_8">
     <g id="line2d_14">
      <g>
       <use style="stroke:#000000;stroke-width:0.8;" x="57.6" xlink:href="#m4c1248463f" y="56.835944"/>
      </g>
     </g>
     <g id="text_15">
      <!-- 0.12 -->
      <g transform="translate(28.334375 60.635163)scale(0.1 -0.1)">
       <use xlink:href="#DejaVuSans-48"/>
       <use x="63.623047" xlink:href="#DejaVuSans-46"/>
       <use x="95.410156" xlink:href="#DejaVuSans-49"/>
       <use x="159.033203" xlink:href="#DejaVuSans-50"/>
      </g>
     </g>
    </g>
    <g id="text_16">
     <!-- Response (au) -->
     <defs>
      <path d="M 44.390625 34.1875 
Q 47.5625 33.109375 50.5625 29.59375 
Q 53.5625 26.078125 56.59375 19.921875 
L 66.609375 0 
L 56 0 
L 46.6875 18.703125 
Q 43.0625 26.03125 39.671875 28.421875 
Q 36.28125 30.8125 30.421875 30.8125 
L 19.671875 30.8125 
L 19.671875 0 
L 9.8125 0 
L 9.8125 72.90625 
L 32.078125 72.90625 
Q 44.578125 72.90625 50.734375 67.671875 
Q 56.890625 62.453125 56.890625 51.90625 
Q 56.890625 45.015625 53.6875 40.46875 
Q 50.484375 35.9375 44.390625 34.1875 
z
M 19.671875 64.796875 
L 19.671875 38.921875 
L 32.078125 38.921875 
Q 39.203125 38.921875 42.84375 42.21875 
Q 46.484375 45.515625 46.484375 51.90625 
Q 46.484375 58.296875 42.84375 61.546875 
Q 39.203125 64.796875 32.078125 64.796875 
z
" id="DejaVuSans-82"/>
      <path d="M 18.109375 8.203125 
L 18.109375 -20.796875 
L 9.078125 -20.796875 
L 9.078125 54.6875 
L 18.109375 54.6875 
L 18.109375 46.390625 
Q 20.953125 51.265625 25.265625 53.625 
Q 29.59375 56 35.59375 56 
Q 45.5625 56 51.78125 48.09375 
Q 58.015625 40.1875 58.015625 27.296875 
Q 58.015625 14.40625 51.78125 6.484375 
Q 45.5625 -1.421875 35.59375 -1.421875 
Q 29.59375 -1.421875 25.265625 0.953125 
Q 20.953125 3.328125 18.109375 8.203125 
z
M 48.6875 27.296875 
Q 48.6875 37.203125 44.609375 42.84375 
Q 40.53125 48.484375 33.40625 48.484375 
Q 26.265625 48.484375 22.1875 42.84375 
Q 18.109375 37.203125 18.109375 27.296875 
Q 18.109375 17.390625 22.1875 11.75 
Q 26.265625 6.109375 33.40625 6.109375 
Q 40.53125 6.109375 44.609375 11.75 
Q 48.6875 17.390625 48.6875 27.296875 
z
" id="DejaVuSans-112"/>
      <path d="M 30.609375 48.390625 
Q 23.390625 48.390625 19.1875 42.75 
Q 14.984375 37.109375 14.984375 27.296875 
Q 14.984375 17.484375 19.15625 11.84375 
Q 23.34375 6.203125 30.609375 6.203125 
Q 37.796875 6.203125 41.984375 11.859375 
Q 46.1875 17.53125 46.1875 27.296875 
Q 46.1875 37.015625 41.984375 42.703125 
Q 37.796875 48.390625 30.609375 48.390625 
z
M 30.609375 56 
Q 42.328125 56 49.015625 48.375 
Q 55.71875 40.765625 55.71875 27.296875 
Q 55.71875 13.875 49.015625 6.21875 
Q 42.328125 -1.421875 30.609375 -1.421875 
Q 18.84375 -1.421875 12.171875 6.21875 
Q 5.515625 13.875 5.515625 27.296875 
Q 5.515625 40.765625 12.171875 48.375 
Q 18.84375 56 30.609375 56 
z
" id="DejaVuSans-111"/>
      <path d="M 54.890625 33.015625 
L 54.890625 0 
L 45.90625 0 
L 45.90625 32.71875 
Q 45.90625 40.484375 42.875 44.328125 
Q 39.84375 48.1875 33.796875 48.1875 
Q 26.515625 48.1875 22.3125 43.546875 
Q 18.109375 38.921875 18.109375 30.90625 
L 18.109375 0 
L 9.078125 0 
L 9.078125 54.6875 
L 18.109375 54.6875 
L 18.109375 46.1875 
Q 21.34375 51.125 25.703125 53.5625 
Q 30.078125 56 35.796875 56 
Q 45.21875 56 50.046875 50.171875 
Q 54.890625 44.34375 54.890625 33.015625 
z
" id="DejaVuSans-110"/>
      <path d="M 34.28125 27.484375 
Q 23.390625 27.484375 19.1875 25 
Q 14.984375 22.515625 14.984375 16.5 
Q 14.984375 11.71875 18.140625 8.90625 
Q 21.296875 6.109375 26.703125 6.109375 
Q 34.1875 6.109375 38.703125 11.40625 
Q 43.21875 16.703125 43.21875 25.484375 
L 43.21875 27.484375 
z
M 52.203125 31.203125 
L 52.203125 0 
L 43.21875 0 
L 43.21875 8.296875 
Q 40.140625 3.328125 35.546875 0.953125 
Q 30.953125 -1.421875 24.3125 -1.421875 
Q 15.921875 -1.421875 10.953125 3.296875 
Q 6 8.015625 6 15.921875 
Q 6 25.140625 12.171875 29.828125 
Q 18.359375 34.515625 30.609375 34.515625 
L 43.21875 34.515625 
L 43.21875 35.40625 
Q 43.21875 41.609375 39.140625 45 
Q 35.0625 48.390625 27.6875 48.390625 
Q 23 48.390625 18.546875 47.265625 
Q 14.109375 46.140625 10.015625 43.890625 
L 10.015625 52.203125 
Q 14.9375 54.109375 19.578125 55.046875 
Q 24.21875 56 28.609375 56 
Q 40.484375 56 46.34375 49.84375 
Q 52.203125 43.703125 52.203125 31.203125 
z
" id="DejaVuSans-97"/>
      <path d="M 8.5 21.578125 
L 8.5 54.6875 
L 17.484375 54.6875 
L 17.484375 21.921875 
Q 17.484375 14.15625 20.5 10.265625 
Q 23.53125 6.390625 29.59375 6.390625 
Q 36.859375 6.390625 41.078125 11.03125 
Q 45.3125 15.671875 45.3125 23.6875 
L 45.3125 54.6875 
L 54.296875 54.6875 
L 54.296875 0 
L 45.3125 0 
L 45.3125 8.40625 
Q 42.046875 3.421875 37.71875 1 
Q 33.40625 -1.421875 27.6875 -1.421875 
Q 18.265625 -1.421875 13.375 4.4375 
Q 8.5 10.296875 8.5 21.578125 
z
M 31.109375 56 
z
" id="DejaVuSans-117"/>
     </defs>
     <g transform="translate(13.875 210.487375)rotate(-90)scale(0.1 -0.1)">
      <use xlink:href="#DejaVuSans-82"/>
      <use x="69.419922" xlink:href="#DejaVuSans-101"/>
      <use x="130.943359" xlink:href="#DejaVuSans-115"/>
      <use x="183.042969" xlink:href="#DejaVuSans-112"/>
      <use x="246.519531" xlink:href="#DejaVuSans-111"/>
      <use x="307.701172" xlink:href="#DejaVuSans-110"/>
      <use x="371.080078" xlink:href="#DejaVuSans-115"/>
      <use x="423.179688" xlink:href="#DejaVuSans-101"/>
      <use x="484.703125" xlink:href="#DejaVuSans-32"/>
      <use x="516.490234" xlink:href="#DejaVuSans-40"/>
      <use x="555.503906" xlink:href="#DejaVuSans-97"/>
      <use x="616.783203" xlink:href="#DejaVuSans-117"/>
      <use x="680.162109" xlink:href="#DejaVuSans-41"/>
     </g>
    </g>
   </g>
   <g id="line2d_15">
    <path clip-path="url(#p4db1ef302b)" d="M 57.573128 268.971105 
L 61.137256 268.868631 
L 61.476697 68.967357 
L 61.674704 53.568 
L 61.759564 53.699343 
L 61.985858 54.049592 
L 62.155578 56.785973 
L 62.551593 63.692971 
L 62.721313 140.777307 
L 63.032467 223.317103 
L 63.343621 252.640267 
L 63.598202 259.605847 
L 63.965929 266.40662 
L 64.786244 268.734211 
L 66.822889 268.909615 
L 68.208939 268.823207 
L 68.54838 93.551707 
L 68.746387 79.9441 
L 68.831247 80.009352 
L 69.057541 80.183356 
L 69.198975 82.072125 
L 69.623276 88.322423 
L 69.792996 156.108222 
L 70.10415 228.718913 
L 70.415304 254.523157 
L 70.669885 260.656644 
L 71.037612 266.646277 
L 71.857928 268.70108 
L 74.007719 268.859671 
L 75.280622 268.784321 
L 75.620063 113.625126 
L 75.81807 101.484548 
L 75.90293 101.497655 
L 76.129224 101.532607 
L 76.270658 103.133555 
L 76.694959 108.454543 
L 76.864679 168.64032 
L 77.175833 233.134512 
L 77.486987 256.061845 
L 77.741568 261.514882 
L 78.109296 266.84115 
L 78.929611 268.672684 
L 81.164263 268.817592 
L 82.352305 268.751209 
L 82.691746 130.043622 
L 82.974614 119.077643 
L 83.200907 119.002361 
L 83.342341 120.369919 
L 83.766642 124.936821 
L 83.936362 178.900853 
L 84.247517 236.7497 
L 84.558671 257.321299 
L 84.813251 262.217035 
L 85.180979 266.999957 
L 86.001294 268.648488 
L 88.349093 268.782441 
L 89.423989 268.723145 
L 89.763429 143.493079 
L 90.046297 133.481596 
L 90.272591 133.318532 
L 90.385738 134.233801 
L 90.838325 138.449872 
L 91.008046 187.313299 
L 91.3192 239.713705 
L 91.630354 258.353666 
L 91.884934 262.792344 
L 92.252662 267.129627 
L 93.072977 268.62797 
L 95.505636 268.752976 
L 96.495672 268.699449 
L 96.835113 154.525084 
L 97.11798 145.298718 
L 97.344274 145.065459 
L 97.37256 145.171476 
L 97.910008 149.542192 
L 98.079729 194.218962 
L 98.390883 242.146797 
L 98.730324 259.997694 
L 99.324345 267.235688 
L 100.14466 268.610639 
L 102.690466 268.728573 
L 103.567355 268.679505 
L 103.906796 163.584708 
L 104.189663 155.004658 
L 104.415957 154.715051 
L 104.444244 154.803506 
L 104.981692 158.657196 
L 105.151412 199.893783 
L 105.462566 244.146207 
L 105.802007 260.633113 
L 106.396028 267.322571 
L 107.24463 268.598434 
L 109.84701 268.70818 
L 110.639038 268.662763 
L 110.978479 171.032154 
L 111.261346 162.98453 
L 111.48764 162.649534 
L 111.515927 162.723662 
L 112.053375 166.154359 
L 112.223095 204.561483 
L 112.534249 245.790768 
L 112.87369 261.155668 
L 113.467711 267.393837 
L 114.316313 268.586055 
L 117.003553 268.691278 
L 117.710721 268.648739 
L 118.050162 177.159736 
L 118.333029 169.550985 
L 118.559323 169.179309 
L 118.58761 169.241729 
L 119.125058 172.325848 
L 119.294778 208.403907 
L 119.605932 247.144554 
L 119.945373 261.585765 
L 120.539395 267.452362 
L 121.387997 268.575685 
L 124.160096 268.677305 
L 124.782404 268.637014 
L 125.121845 182.205249 
L 125.404713 174.958445 
L 125.631006 174.557043 
L 125.659293 174.60988 
L 126.196741 177.409661 
L 126.338175 205.850322 
L 126.621042 243.14724 
L 126.875623 256.778852 
L 127.130203 263.194521 
L 127.611078 267.500473 
L 128.45968 268.567014 
L 131.31664 268.665785 
L 131.854088 268.627226 
L 132.193528 186.362553 
L 132.476396 179.41439 
L 132.70269 178.988835 
L 132.730976 179.033817 
L 133.268424 181.600056 
L 133.409858 208.723212 
L 133.692725 244.3017 
L 133.947306 257.307356 
L 134.201886 263.429498 
L 134.682761 267.540058 
L 135.531363 268.559775 
L 138.444896 268.656134 
L 138.925771 268.619066 
L 139.265212 189.789992 
L 139.548079 183.088334 
L 139.774373 182.64311 
L 139.802659 182.681644 
L 140.340107 185.055873 
L 140.481541 211.092513 
L 140.764408 245.253795 
L 141.018989 257.743203 
L 141.27357 263.623256 
L 141.754444 267.572653 
L 142.603046 268.553739 
L 145.60144 268.648369 
L 145.997454 268.61227 
L 146.336895 192.617121 
L 146.619762 186.119004 
L 146.846056 185.657728 
L 146.874343 185.690966 
L 147.411791 187.907191 
L 147.553224 213.047393 
L 147.836092 246.039357 
L 148.090672 258.102805 
L 148.345253 263.783102 
L 148.826127 267.599509 
L 149.674729 268.548713 
L 152.70141 268.641657 
L 153.069137 268.606615 
L 153.408578 194.950095 
L 153.691445 188.620091 
L 153.917739 188.145694 
L 153.974313 188.283884 
L 154.483474 190.260686 
L 154.624907 214.660977 
L 154.907775 246.687771 
L 155.162355 258.399617 
L 155.416936 263.915026 
L 155.89781 267.621651 
L 156.746412 268.54453 
L 159.829666 268.636308 
L 160.14082 268.601914 
L 160.480261 196.876011 
L 160.763128 190.684894 
L 160.989422 190.199753 
L 161.045996 190.328726 
L 161.555157 192.203939 
L 161.696591 215.993306 
L 161.979458 247.223163 
L 162.234038 258.644689 
L 162.488619 264.023943 
L 162.969494 267.639915 
L 163.818096 268.541053 
L 166.957923 268.631942 
L 167.212503 268.598009 
L 167.551944 198.466406 
L 167.834812 192.390056 
L 168.061105 191.896107 
L 168.117679 192.017483 
L 168.62684 193.808935 
L 168.768274 217.093728 
L 169.051141 247.665364 
L 169.305722 258.847099 
L 169.560302 264.113895 
L 170.041177 267.654986 
L 170.889779 268.538164 
L 174.057893 268.628199 
L 174.284187 268.594766 
L 174.623627 199.780101 
L 174.906495 193.798605 
L 175.132789 193.297424 
L 175.189362 193.412536 
L 175.698523 195.134893 
L 175.839957 218.00284 
L 176.122824 248.030688 
L 176.377405 259.014316 
L 176.631985 264.188203 
L 177.11286 267.667428 
L 177.961462 268.535766 
L 181.157863 268.625131 
L 181.35587 268.592075 
L 181.695311 200.865498 
L 181.978178 194.962411 
L 182.204472 194.455287 
L 182.261045 194.56523 
L 182.770206 196.230566 
L 182.91164 218.754067 
L 183.194507 248.332567 
L 183.449088 259.152492 
L 183.703669 264.249602 
L 184.184543 267.677703 
L 185.033145 268.533775 
L 188.257833 268.622623 
L 188.427553 268.589843 
L 188.766994 201.762457 
L 189.049861 195.924194 
L 189.276155 195.412182 
L 189.332728 195.517859 
L 189.84189 197.13612 
L 189.983323 219.374945 
L 190.266191 248.582065 
L 190.520771 259.26669 
L 190.775352 264.300344 
L 191.256226 267.686189 
L 192.104828 268.532123 
L 195.329516 268.620383 
L 195.499236 268.587992 
L 195.838677 202.503827 
L 196.121544 196.719162 
L 196.347838 196.203126 
L 196.404412 196.305282 
L 196.913573 197.884667 
L 197.055006 219.888176 
L 197.337874 248.788305 
L 197.592454 259.361088 
L 197.847035 264.342287 
L 198.327909 267.693201 
L 199.176511 268.530754 
L 202.429486 268.618725 
L 202.570919 268.586457 
L 202.91036 203.116692 
L 203.193227 197.376348 
L 203.419521 196.856998 
L 203.476095 196.956244 
L 203.985256 198.503516 
L 204.12669 220.312483 
L 204.409557 248.958812 
L 204.664138 259.439129 
L 204.918718 264.376961 
L 205.399593 267.698996 
L 206.248195 268.529619 
L 209.529456 268.617386 
L 209.642602 268.585185 
L 209.982043 203.623392 
L 210.264911 197.919703 
L 210.491204 197.39762 
L 210.547778 197.494463 
L 211.056939 199.015201 
L 211.198373 220.663316 
L 211.48124 249.099793 
L 211.735821 259.503656 
L 211.990401 264.40563 
L 212.471276 267.703785 
L 213.319878 268.528678 
L 216.601139 268.616114 
L 216.714286 268.584131 
L 217.053726 204.042367 
L 217.336594 198.368993 
L 217.591174 197.856701 
L 217.619461 197.939514 
L 218.128622 199.438324 
L 218.270056 220.953427 
L 218.552923 249.216374 
L 218.807504 259.557015 
L 219.062084 264.429336 
L 219.542959 267.707745 
L 220.391561 268.527898 
L 223.672822 268.61506 
L 223.785969 268.583258 
L 224.12541 204.388838 
L 224.408277 198.740538 
L 224.662858 198.225751 
L 224.691144 198.307559 
L 225.200305 199.788245 
L 225.341739 221.193348 
L 225.624606 249.312785 
L 225.879187 259.601142 
L 226.133768 264.448941 
L 226.614642 267.711018 
L 227.463244 268.527252 
L 230.772792 268.614387 
L 230.857652 268.582535 
L 231.197093 204.675377 
L 231.47996 199.047818 
L 231.734541 198.53097 
L 231.762827 198.611947 
L 232.271989 200.077649 
L 232.413422 221.391777 
L 232.69629 249.392523 
L 232.95087 259.637637 
L 233.205451 264.465154 
L 233.686325 267.713725 
L 234.534927 268.526717 
L 237.844475 268.613665 
L 237.929335 268.581936 
L 238.268776 204.912367 
L 238.551643 199.301965 
L 238.806224 198.783415 
L 238.834511 198.863705 
L 239.343672 200.31702 
L 239.485105 221.5559 
L 239.767973 249.458476 
L 240.022553 259.667823 
L 240.277134 264.478565 
L 240.758008 267.715963 
L 241.60661 268.526274 
L 244.916158 268.613067 
L 245.001018 268.58144 
L 245.340459 205.10839 
L 245.623326 199.512181 
L 245.877907 198.992224 
L 245.906194 199.071947 
L 246.415355 200.515018 
L 246.556789 221.691657 
L 246.839656 249.51303 
L 247.094237 259.692792 
L 247.348817 264.489657 
L 247.829692 267.717814 
L 248.678294 268.525907 
L 251.987841 268.612572 
L 252.072701 268.58103 
L 252.412142 205.270536 
L 252.69501 199.686067 
L 252.94959 199.164949 
L 252.977877 199.244202 
L 253.487038 200.678803 
L 253.628472 221.803956 
L 253.911339 249.558156 
L 254.16592 259.713446 
L 254.4205 264.498833 
L 254.901375 267.719345 
L 255.749977 268.525604 
L 259.087811 268.612362 
L 259.144385 268.58069 
L 259.483825 205.404665 
L 259.766693 199.82991 
L 260.021273 199.307831 
L 260.04956 199.386696 
L 260.558721 200.814291 
L 260.700155 221.896853 
L 260.983022 249.595487 
L 261.237603 259.730531 
L 261.492183 264.506423 
L 261.973058 267.720612 
L 262.82166 268.525352 
L 266.159494 268.612024 
L 266.216068 268.580408 
L 266.555509 205.515623 
L 266.838376 199.948904 
L 267.092957 199.426032 
L 267.121243 199.504575 
L 267.630404 200.926376 
L 267.771838 221.973704 
L 268.054705 249.62637 
L 268.309286 259.744666 
L 268.563867 264.512702 
L 269.044741 267.721659 
L 269.893343 268.525144 
L 273.231178 268.611743 
L 273.287751 268.580175 
L 273.627192 205.607417 
L 273.910059 200.047346 
L 274.16464 199.523817 
L 274.192926 199.602095 
L 274.702088 201.019103 
L 274.843521 222.037283 
L 275.126389 249.651918 
L 275.380969 259.756359 
L 275.63555 264.517896 
L 276.116424 267.722526 
L 276.965026 268.524972 
L 280.302861 268.611511 
L 280.359434 268.579983 
L 280.698875 205.683358 
L 280.981742 200.128788 
L 281.236323 199.604716 
L 281.26461 199.682774 
L 281.773771 201.095818 
L 281.915204 222.089882 
L 282.198072 249.673055 
L 282.452652 259.766033 
L 282.707233 264.522194 
L 283.188107 267.723242 
L 284.036709 268.524829 
L 287.374544 268.611319 
L 287.431117 268.579823 
L 287.770558 205.746185 
L 288.053425 200.196166 
L 288.308006 199.671646 
L 288.336293 199.749522 
L 288.845454 201.159286 
L 288.986888 222.133399 
L 289.269755 249.690543 
L 289.524336 259.774036 
L 289.778916 264.525749 
L 290.259791 267.723835 
L 291.108393 268.524711 
L 294.446227 268.61116 
L 294.5028 268.579691 
L 294.842241 205.798165 
L 295.125109 200.251911 
L 295.379689 199.72702 
L 295.407976 199.804746 
L 295.917137 201.211797 
L 296.058571 222.169403 
L 296.341438 249.705011 
L 296.596019 259.780658 
L 296.850599 264.528691 
L 297.331474 267.724326 
L 298.180076 268.524613 
L 301.51791 268.611028 
L 301.574484 268.579582 
L 301.913924 205.841171 
L 302.196792 200.298032 
L 302.451372 199.772835 
L 302.479659 199.850436 
L 302.98882 201.255243 
L 303.130254 222.199192 
L 303.413121 249.716981 
L 303.667702 259.786137 
L 303.922282 264.531125 
L 304.403157 267.724732 
L 305.251759 268.524532 
L 308.589593 268.610919 
L 308.646167 268.579491 
L 308.985608 205.876752 
L 309.268475 200.336192 
L 309.523056 199.81074 
L 309.551342 199.888238 
L 310.060503 201.291188 
L 310.201937 222.223838 
L 310.484804 249.726885 
L 310.739385 259.79067 
L 310.993966 264.533138 
L 311.47484 267.725068 
L 312.323442 268.524465 
L 315.661277 268.610829 
L 315.71785 268.579416 
L 316.057291 205.906192 
L 316.340158 200.367764 
L 316.594739 199.842103 
L 316.623025 199.919516 
L 317.132187 201.320929 
L 317.27362 222.24423 
L 317.556488 249.73508 
L 317.811068 259.79442 
L 318.065649 264.534804 
L 318.546523 267.725346 
L 319.395125 268.52441 
L 322.73296 268.610754 
L 322.789533 268.579354 
L 323.128974 205.93055 
L 323.411841 200.393887 
L 323.666422 199.868052 
L 323.694709 199.945394 
L 324.20387 201.345537 
L 324.345303 222.261102 
L 324.628171 249.74186 
L 324.882751 259.797523 
L 325.137332 264.536183 
L 325.618206 267.725575 
L 326.466808 268.524364 
L 329.804643 268.610693 
L 329.861216 268.579303 
L 330.200657 205.950704 
L 330.483524 200.415501 
L 330.738105 199.889522 
L 330.766392 199.966806 
L 331.275553 201.365898 
L 331.416987 222.275063 
L 331.699854 249.74747 
L 331.954435 259.800091 
L 332.209015 264.537324 
L 332.68989 267.725766 
L 333.538492 268.524326 
L 336.876326 268.610642 
L 336.932899 268.57926 
L 337.27234 205.967379 
L 337.555208 200.433385 
L 337.809788 199.907287 
L 337.838075 199.984523 
L 338.347236 201.382744 
L 338.48867 222.286613 
L 338.771537 249.752111 
L 339.026118 259.802215 
L 339.280698 264.538267 
L 339.761573 267.725923 
L 340.610175 268.524295 
L 343.948009 268.610599 
L 344.004583 268.579225 
L 344.344023 205.981177 
L 344.626891 200.448182 
L 344.881471 199.921986 
L 344.909758 199.999182 
L 345.418919 201.396683 
L 345.560353 222.296171 
L 345.84322 249.755952 
L 346.097801 259.803973 
L 346.352381 264.539048 
L 346.833256 267.726053 
L 347.681858 268.524269 
L 351.019692 268.610564 
L 351.076266 268.579196 
L 351.415707 205.992593 
L 351.698574 200.460425 
L 351.953155 199.934148 
L 351.981441 200.011311 
L 352.490602 201.408217 
L 352.632036 222.304079 
L 352.914903 249.75913 
L 353.169484 259.805427 
L 353.424065 264.539694 
L 353.904939 267.726161 
L 354.753541 268.524247 
L 358.091376 268.610535 
L 358.147949 268.579172 
L 358.48739 206.002039 
L 358.770257 200.470556 
L 359.024838 199.944211 
L 359.053124 200.021347 
L 359.562286 201.41776 
L 359.703719 222.310622 
L 359.986587 249.761759 
L 360.241167 259.806631 
L 360.495748 264.540229 
L 360.976622 267.72625 
L 361.825224 268.52423 
L 365.163059 268.610511 
L 365.219632 268.579152 
L 365.559073 206.009855 
L 365.84194 200.478938 
L 366.096521 199.952537 
L 366.124808 200.029651 
L 366.633969 201.425656 
L 366.775402 222.316036 
L 367.05827 249.763935 
L 367.31285 259.807627 
L 367.567431 264.540671 
L 368.048305 267.726324 
L 368.896907 268.524215 
L 372.234742 268.610492 
L 372.291315 268.579136 
L 372.630756 206.016322 
L 372.913623 200.485874 
L 373.168204 199.959427 
L 373.196491 200.036522 
L 373.705652 201.43219 
L 373.847086 222.320516 
L 374.129953 249.765735 
L 374.384534 259.80845 
L 374.639114 264.541037 
L 375.119989 267.726385 
L 375.968591 268.524203 
L 379.306425 268.610475 
L 379.362998 268.579122 
L 379.702439 206.021673 
L 379.985307 200.491613 
L 380.239887 199.965128 
L 380.268174 200.042207 
L 380.777335 201.437596 
L 380.918769 222.324223 
L 381.201636 249.767225 
L 381.456217 259.809132 
L 381.710797 264.54134 
L 382.191672 267.726435 
L 383.040274 268.524193 
L 386.378108 268.610462 
L 386.434682 268.579111 
L 386.774122 206.026101 
L 387.05699 200.496361 
L 387.31157 199.969845 
L 387.339857 200.046911 
L 387.849018 201.442069 
L 387.990452 222.32729 
L 388.273319 249.768457 
L 388.5279 259.809696 
L 388.78248 264.54159 
L 389.263355 267.726477 
L 390.111957 268.524184 
L 393.449791 268.61045 
L 393.506365 268.579102 
L 393.845806 206.029765 
L 394.128673 200.50029 
L 394.383254 199.973748 
L 394.41154 200.050804 
L 394.920701 201.44577 
L 395.062135 222.329828 
L 395.345002 249.769477 
L 395.599583 259.810163 
L 395.854164 264.541798 
L 396.335038 267.726512 
L 397.18364 268.524177 
L 400.521475 268.610441 
L 400.578048 268.579094 
L 400.917489 206.032796 
L 401.200356 200.503541 
L 401.454937 199.976977 
L 401.483223 200.054024 
L 401.992385 201.448833 
L 402.133818 222.331927 
L 402.416686 249.770321 
L 402.671266 259.810549 
L 402.925847 264.541969 
L 403.406721 267.72654 
L 404.255323 268.524172 
L 407.593158 268.610433 
L 407.649731 268.579088 
L 407.989172 206.035305 
L 408.272039 200.506232 
L 408.52662 199.97965 
L 408.554907 200.056689 
L 409.064068 201.451367 
L 409.205501 222.333665 
L 409.488369 249.771019 
L 409.742949 259.810869 
L 409.99753 264.542111 
L 410.478404 267.726564 
L 411.327006 268.524167 
L 414.664841 268.610427 
L 414.693128 268.610628 
L 414.693128 268.610628 
" style="fill:none;stroke:#1f77b4;stroke-linecap:square;stroke-width:1.5;"/>
   </g>
   <g id="line2d_16">
    <path clip-path="url(#p4db1ef302b)" d="M 57.573128 295.488 
L 61.108969 295.488 
L 61.222116 277.81007 
L 62.523306 277.81007 
L 62.636453 295.488 
L 68.180652 295.488 
L 68.293799 277.81007 
L 69.594989 277.81007 
L 69.708136 295.488 
L 75.252336 295.488 
L 75.365482 277.81007 
L 76.666672 277.81007 
L 76.779819 295.488 
L 82.324019 295.488 
L 82.437166 277.81007 
L 83.738355 277.81007 
L 83.851502 295.488 
L 89.395702 295.488 
L 89.508849 277.81007 
L 90.810038 277.81007 
L 90.923185 295.488 
L 96.467385 295.488 
L 96.580532 277.81007 
L 97.881722 277.81007 
L 97.994869 295.488 
L 103.539068 295.488 
L 103.652215 277.81007 
L 104.953405 277.81007 
L 105.066552 295.488 
L 110.610751 295.488 
L 110.723898 277.81007 
L 112.025088 277.81007 
L 112.138235 295.488 
L 117.682435 295.488 
L 117.795581 277.81007 
L 119.096771 277.81007 
L 119.209918 295.488 
L 124.754118 295.488 
L 124.867265 277.81007 
L 126.168454 277.81007 
L 126.281601 295.488 
L 131.825801 295.488 
L 131.938948 277.81007 
L 133.240138 277.81007 
L 133.353284 295.488 
L 138.897484 295.488 
L 139.010631 277.81007 
L 140.311821 277.81007 
L 140.424968 295.488 
L 145.969167 295.488 
L 146.082314 277.81007 
L 147.383504 277.81007 
L 147.496651 295.488 
L 153.04085 295.488 
L 153.153997 277.81007 
L 154.455187 277.81007 
L 154.568334 295.488 
L 160.112534 295.488 
L 160.22568 277.81007 
L 161.52687 277.81007 
L 161.640017 295.488 
L 167.184217 295.488 
L 167.297364 277.81007 
L 168.598553 277.81007 
L 168.7117 295.488 
L 174.2559 295.488 
L 174.369047 277.81007 
L 175.670237 277.81007 
L 175.783383 295.488 
L 181.327583 295.488 
L 181.44073 277.81007 
L 182.74192 277.81007 
L 182.855067 295.488 
L 188.399266 295.488 
L 188.512413 277.81007 
L 189.813603 277.81007 
L 189.92675 295.488 
L 195.470949 295.488 
L 195.584096 277.81007 
L 196.885286 277.81007 
L 196.998433 295.488 
L 202.542633 295.488 
L 202.655779 277.81007 
L 203.956969 277.81007 
L 204.070116 295.488 
L 209.614316 295.488 
L 209.727463 277.81007 
L 211.028652 277.81007 
L 211.141799 295.488 
L 216.685999 295.488 
L 216.799146 277.81007 
L 218.100336 277.81007 
L 218.213482 295.488 
L 223.757682 295.488 
L 223.870829 277.81007 
L 225.172019 277.81007 
L 225.285166 295.488 
L 230.829365 295.488 
L 230.942512 277.81007 
L 232.243702 277.81007 
L 232.356849 295.488 
L 237.901048 295.488 
L 238.014195 277.81007 
L 239.315385 277.81007 
L 239.428532 295.488 
L 244.972732 295.488 
L 245.085878 277.81007 
L 246.387068 277.81007 
L 246.500215 295.488 
L 252.044415 295.488 
L 252.157562 277.81007 
L 253.458751 277.81007 
L 253.571898 295.488 
L 259.116098 295.488 
L 259.229245 277.81007 
L 260.530435 277.81007 
L 260.643581 295.488 
L 266.187781 295.488 
L 266.300928 277.81007 
L 267.602118 277.81007 
L 267.715265 295.488 
L 273.259464 295.488 
L 273.372611 277.81007 
L 274.673801 277.81007 
L 274.786948 295.488 
L 280.331147 295.488 
L 280.444294 277.81007 
L 281.745484 277.81007 
L 281.858631 295.488 
L 287.402831 295.488 
L 287.515978 277.81007 
L 288.817167 277.81007 
L 288.930314 295.488 
L 294.474514 295.488 
L 294.587661 277.81007 
L 295.88885 277.81007 
L 296.001997 295.488 
L 301.546197 295.488 
L 301.659344 277.81007 
L 302.960534 277.81007 
L 303.07368 295.488 
L 308.61788 295.488 
L 308.731027 277.81007 
L 310.032217 277.81007 
L 310.145364 295.488 
L 315.689563 295.488 
L 315.80271 277.81007 
L 317.1039 277.81007 
L 317.217047 295.488 
L 322.761246 295.488 
L 322.874393 277.81007 
L 324.175583 277.81007 
L 324.28873 295.488 
L 329.83293 295.488 
L 329.946077 277.81007 
L 331.247266 277.81007 
L 331.360413 295.488 
L 336.904613 295.488 
L 337.01776 277.81007 
L 338.318949 277.81007 
L 338.432096 295.488 
L 343.976296 295.488 
L 344.089443 277.81007 
L 345.390633 277.81007 
L 345.503779 295.488 
L 351.047979 295.488 
L 351.161126 277.81007 
L 352.462316 277.81007 
L 352.575463 295.488 
L 358.119662 295.488 
L 358.232809 277.81007 
L 359.533999 277.81007 
L 359.647146 295.488 
L 365.191345 295.488 
L 365.304492 277.81007 
L 366.605682 277.81007 
L 366.718829 295.488 
L 372.263029 295.488 
L 372.376176 277.81007 
L 373.677365 277.81007 
L 373.790512 295.488 
L 379.334712 295.488 
L 379.447859 277.81007 
L 380.749048 277.81007 
L 380.862195 295.488 
L 386.406395 295.488 
L 386.519542 277.81007 
L 387.820732 277.81007 
L 387.933878 295.488 
L 393.478078 295.488 
L 393.591225 277.81007 
L 394.892415 277.81007 
L 395.005562 295.488 
L 400.549761 295.488 
L 400.662908 277.81007 
L 401.964098 277.81007 
L 402.077245 295.488 
L 407.621444 295.488 
L 407.734591 277.81007 
L 409.035781 277.81007 
L 409.148928 295.488 
L 414.693128 295.488 
L 414.693128 295.488 
" style="fill:none;stroke:#ff7f0e;stroke-linecap:square;stroke-width:1.5;"/>
   </g>
   <g id="patch_3">
    <path d="M 57.6 307.584 
L 57.6 41.472 
" style="fill:none;stroke:#000000;stroke-linecap:square;stroke-linejoin:miter;stroke-width:0.8;"/>
   </g>
   <g id="patch_4">
    <path d="M 414.72 307.584 
L 414.72 41.472 
" style="fill:none;stroke:#000000;stroke-linecap:square;stroke-linejoin:miter;stroke-width:0.8;"/>
   </g>
   <g id="patch_5">
    <path d="M 57.6 307.584 
L 414.72 307.584 
" style="fill:none;stroke:#000000;stroke-linecap:square;stroke-linejoin:miter;stroke-width:0.8;"/>
   </g>
   <g id="patch_6">
    <path d="M 57.6 41.472 
L 414.72 41.472 
" style="fill:none;stroke:#000000;stroke-linecap:square;stroke-linejoin:miter;stroke-width:0.8;"/>
   </g>
   <g id="text_17">
    <!-- Aligator Output -->
    <defs>
     <path d="M 34.1875 63.1875 
L 20.796875 26.90625 
L 47.609375 26.90625 
z
M 28.609375 72.90625 
L 39.796875 72.90625 
L 67.578125 0 
L 57.328125 0 
L 50.6875 18.703125 
L 17.828125 18.703125 
L 11.1875 0 
L 0.78125 0 
z
" id="DejaVuSans-65"/>
     <path d="M 9.421875 75.984375 
L 18.40625 75.984375 
L 18.40625 0 
L 9.421875 0 
z
" id="DejaVuSans-108"/>
     <path d="M 45.40625 27.984375 
Q 45.40625 37.75 41.375 43.109375 
Q 37.359375 48.484375 30.078125 48.484375 
Q 22.859375 48.484375 18.828125 43.109375 
Q 14.796875 37.75 14.796875 27.984375 
Q 14.796875 18.265625 18.828125 12.890625 
Q 22.859375 7.515625 30.078125 7.515625 
Q 37.359375 7.515625 41.375 12.890625 
Q 45.40625 18.265625 45.40625 27.984375 
z
M 54.390625 6.78125 
Q 54.390625 -7.171875 48.1875 -13.984375 
Q 42 -20.796875 29.203125 -20.796875 
Q 24.46875 -20.796875 20.265625 -20.09375 
Q 16.0625 -19.390625 12.109375 -17.921875 
L 12.109375 -9.1875 
Q 16.0625 -11.328125 19.921875 -12.34375 
Q 23.78125 -13.375 27.78125 -13.375 
Q 36.625 -13.375 41.015625 -8.765625 
Q 45.40625 -4.15625 45.40625 5.171875 
L 45.40625 9.625 
Q 42.625 4.78125 38.28125 2.390625 
Q 33.9375 0 27.875 0 
Q 17.828125 0 11.671875 7.65625 
Q 5.515625 15.328125 5.515625 27.984375 
Q 5.515625 40.671875 11.671875 48.328125 
Q 17.828125 56 27.875 56 
Q 33.9375 56 38.28125 53.609375 
Q 42.625 51.21875 45.40625 46.390625 
L 45.40625 54.6875 
L 54.390625 54.6875 
z
" id="DejaVuSans-103"/>
     <path d="M 18.3125 70.21875 
L 18.3125 54.6875 
L 36.8125 54.6875 
L 36.8125 47.703125 
L 18.3125 47.703125 
L 18.3125 18.015625 
Q 18.3125 11.328125 20.140625 9.421875 
Q 21.96875 7.515625 27.59375 7.515625 
L 36.8125 7.515625 
L 36.8125 0 
L 27.59375 0 
Q 17.1875 0 13.234375 3.875 
Q 9.28125 7.765625 9.28125 18.015625 
L 9.28125 47.703125 
L 2.6875 47.703125 
L 2.6875 54.6875 
L 9.28125 54.6875 
L 9.28125 70.21875 
z
" id="DejaVuSans-116"/>
     <path d="M 41.109375 46.296875 
Q 39.59375 47.171875 37.8125 47.578125 
Q 36.03125 48 33.890625 48 
Q 26.265625 48 22.1875 43.046875 
Q 18.109375 38.09375 18.109375 28.8125 
L 18.109375 0 
L 9.078125 0 
L 9.078125 54.6875 
L 18.109375 54.6875 
L 18.109375 46.1875 
Q 20.953125 51.171875 25.484375 53.578125 
Q 30.03125 56 36.53125 56 
Q 37.453125 56 38.578125 55.875 
Q 39.703125 55.765625 41.0625 55.515625 
z
" id="DejaVuSans-114"/>
     <path d="M 39.40625 66.21875 
Q 28.65625 66.21875 22.328125 58.203125 
Q 16.015625 50.203125 16.015625 36.375 
Q 16.015625 22.609375 22.328125 14.59375 
Q 28.65625 6.59375 39.40625 6.59375 
Q 50.140625 6.59375 56.421875 14.59375 
Q 62.703125 22.609375 62.703125 36.375 
Q 62.703125 50.203125 56.421875 58.203125 
Q 50.140625 66.21875 39.40625 66.21875 
z
M 39.40625 74.21875 
Q 54.734375 74.21875 63.90625 63.9375 
Q 73.09375 53.65625 73.09375 36.375 
Q 73.09375 19.140625 63.90625 8.859375 
Q 54.734375 -1.421875 39.40625 -1.421875 
Q 24.03125 -1.421875 14.8125 8.828125 
Q 5.609375 19.09375 5.609375 36.375 
Q 5.609375 53.65625 14.8125 63.9375 
Q 24.03125 74.21875 39.40625 74.21875 
z
" id="DejaVuSans-79"/>
    </defs>
    <g transform="translate(189.9975 35.472)scale(0.12 -0.12)">
     <use xlink:href="#DejaVuSans-65"/>
     <use x="68.408203" xlink:href="#DejaVuSans-108"/>
     <use x="96.191406" xlink:href="#DejaVuSans-105"/>
     <use x="123.974609" xlink:href="#DejaVuSans-103"/>
     <use x="187.451172" xlink:href="#DejaVuSans-97"/>
     <use x="248.730469" xlink:href="#DejaVuSans-116"/>
     <use x="287.939453" xlink:href="#DejaVuSans-111"/>
     <use x="349.121094" xlink:href="#DejaVuSans-114"/>
     <use x="390.234375" xlink:href="#DejaVuSans-32"/>
     <use x="422.021484" xlink:href="#DejaVuSans-79"/>
     <use x="500.732422" xlink:href="#DejaVuSans-117"/>
     <use x="564.111328" xlink:href="#DejaVuSans-116"/>
     <use x="603.320312" xlink:href="#DejaVuSans-112"/>
     <use x="666.796875" xlink:href="#DejaVuSans-117"/>
     <use x="730.175781" xlink:href="#DejaVuSans-116"/>
    </g>
   </g>
   <g id="legend_1">
    <g id="patch_7">
     <path d="M 344.298125 78.82825 
L 407.72 78.82825 
Q 409.72 78.82825 409.72 76.82825 
L 409.72 48.472 
Q 409.72 46.472 407.72 46.472 
L 344.298125 46.472 
Q 342.298125 46.472 342.298125 48.472 
L 342.298125 76.82825 
Q 342.298125 78.82825 344.298125 78.82825 
z
" style="fill:#ffffff;opacity:0.8;stroke:#cccccc;stroke-linejoin:miter;"/>
    </g>
    <g id="line2d_17">
     <path d="M 346.298125 54.570437 
L 366.298125 54.570437 
" style="fill:none;stroke:#1f77b4;stroke-linecap:square;stroke-width:1.5;"/>
    </g>
    <g id="line2d_18"/>
    <g id="text_18">
     <!-- Trial 1 -->
     <g transform="translate(374.298125 58.070437)scale(0.1 -0.1)">
      <use xlink:href="#DejaVuSans-84"/>
      <use x="60.865234" xlink:href="#DejaVuSans-114"/>
      <use x="101.978516" xlink:href="#DejaVuSans-105"/>
      <use x="129.761719" xlink:href="#DejaVuSans-97"/>
      <use x="191.041016" xlink:href="#DejaVuSans-108"/>
      <use x="218.824219" xlink:href="#DejaVuSans-32"/>
      <use x="250.611328" xlink:href="#DejaVuSans-49"/>
     </g>
    </g>
    <g id="line2d_19">
     <path d="M 346.298125 69.248562 
L 366.298125 69.248562 
" style="fill:none;stroke:#ff7f0e;stroke-linecap:square;stroke-width:1.5;"/>
    </g>
    <g id="line2d_20"/>
    <g id="text_19">
     <!-- Glu -->
     <defs>
      <path d="M 59.515625 10.40625 
L 59.515625 29.984375 
L 43.40625 29.984375 
L 43.40625 38.09375 
L 69.28125 38.09375 
L 69.28125 6.78125 
Q 63.578125 2.734375 56.6875 0.65625 
Q 49.8125 -1.421875 42 -1.421875 
Q 24.90625 -1.421875 15.25 8.5625 
Q 5.609375 18.5625 5.609375 36.375 
Q 5.609375 54.25 15.25 64.234375 
Q 24.90625 74.21875 42 74.21875 
Q 49.125 74.21875 55.546875 72.453125 
Q 61.96875 70.703125 67.390625 67.28125 
L 67.390625 56.78125 
Q 61.921875 61.421875 55.765625 63.765625 
Q 49.609375 66.109375 42.828125 66.109375 
Q 29.4375 66.109375 22.71875 58.640625 
Q 16.015625 51.171875 16.015625 36.375 
Q 16.015625 21.625 22.71875 14.15625 
Q 29.4375 6.6875 42.828125 6.6875 
Q 48.046875 6.6875 52.140625 7.59375 
Q 56.25 8.5 59.515625 10.40625 
z
" id="DejaVuSans-71"/>
     </defs>
     <g transform="translate(374.298125 72.748562)scale(0.1 -0.1)">
      <use xlink:href="#DejaVuSans-71"/>
      <use x="77.490234" xlink:href="#DejaVuSans-108"/>
      <use x="105.273438" xlink:href="#DejaVuSans-117"/>
     </g>
    </g>
   </g>
  </g>
 </g>
 <defs>
  <clipPath id="p4db1ef302b">
   <rect height="266.112" width="357.12" x="57.6" y="41.472"/>
  </clipPath>
 </defs>
</svg>
